<svg id="visual" viewBox="0 0 960 540" width="960" height="540" xmlns="http://www.w3.org/2000/svg" xmlns:xlink="http://www.w3.org/1999/xlink" version="1.1">
        <rect x="0" y="0" width="960" height="540" fill="#001220">
        </rect>
        
        <path d="M0 353L22.8 348.3C45.7 343.7 91.3 334.3 137 331.7C182.7 329 228.3 333 274 333.5C319.7 334 365.3 331 411.2 337.8C457 344.7 503 361.3 548.8 369.5C594.7 377.7 640.3 377.3 686 368C731.7 358.7 777.3 340.3 823 336.7C868.7 333 914.3 344 937.2 349.5L960 355L960 541L937.2 541C914.3 541 868.7 541 823 541C777.3 541 731.7 541 686 541C640.3 541 594.7 541 548.8 541C503 541 457 541 411.2 541C365.3 541 319.7 541 274 541C228.3 541 182.7 541 137 541C91.3 541 45.7 541 22.8 541L0 541Z" fill="#fa7268">
        </path>

        <path d="M0 413L22.8 407.3C45.7 401.7 91.3 390.3 137 381C182.7 371.7 228.3 364.3 274 372.3C319.7 380.3 365.3 403.7 411.2 403.8C457 404 503 381 548.8 368.8C594.7 356.7 640.3 355.3 686 364.3C731.7 373.3 777.3 392.7 823 402.3C868.7 412 914.3 412 937.2 412L960 412L960 541L937.2 541C914.3 541 868.7 541 823 541C777.3 541 731.7 541 686 541C640.3 541 594.7 541 548.8 541C503 541 457 541 411.2 541C365.3 541 319.7 541 274 541C228.3 541 182.7 541 137 541C91.3 541 45.7 541 22.8 541L0 541Z" fill="#ef5f67">
        </path>

        <path d="M0 453L22.8 444.3C45.7 435.7 91.3 418.3 137 413.7C182.7 409 228.3 417 274 425.2C319.7 433.3 365.3 441.7 411.2 445.8C457 450 503 450 548.8 444.7C594.7 439.3 640.3 428.7 686 426.8C731.7 425 777.3 432 823 437C868.7 442 914.3 445 937.2 446.5L960 448L960 541L937.2 541C914.3 541 868.7 541 823 541C777.3 541 731.7 541 686 541C640.3 541 594.7 541 548.8 541C503 541 457 541 411.2 541C365.3 541 319.7 541 274 541C228.3 541 182.7 541 137 541C91.3 541 45.7 541 22.8 541L0 541Z" fill="#e34c67">
        </path>

        <path d="M0 457L22.8 461.8C45.7 466.7 91.3 476.3 137 476C182.7 475.7 228.3 465.3 274 464.8C319.7 464.3 365.3 473.7 411.2 473.3C457 473 503 463 548.8 462.5C594.7 462 640.3 471 686 472.7C731.7 474.3 777.3 468.7 823 469.7C868.7 470.7 914.3 478.3 937.2 482.2L960 486L960 541L937.2 541C914.3 541 868.7 541 823 541C777.3 541 731.7 541 686 541C640.3 541 594.7 541 548.8 541C503 541 457 541 411.2 541C365.3 541 319.7 541 274 541C228.3 541 182.7 541 137 541C91.3 541 45.7 541 22.8 541L0 541Z" fill="#d53867">
        </path>

        <path d="M0 509L22.8 508.8C45.7 508.7 91.3 508.3 137 503C182.7 497.7 228.3 487.3 274 485C319.7 482.7 365.3 488.3 411.2 489.2C457 490 503 486 548.8 483.8C594.7 481.7 640.3 481.3 686 484C731.7 486.7 777.3 492.3 823 498C868.7 503.7 914.3 509.3 937.2 512.2L960 515L960 541L937.2 541C914.3 541 868.7 541 823 541C777.3 541 731.7 541 686 541C640.3 541 594.7 541 548.8 541C503 541 457 541 411.2 541C365.3 541 319.7 541 274 541C228.3 541 182.7 541 137 541C91.3 541 45.7 541 22.8 541L0 541Z" fill="#c62368">
        </path>
</svg>